<?xml version="1.0" standalone="no"?>
<!DOCTYPE svg PUBLIC "-//W3C//DTD SVG 20010904//EN"
 "http://www.w3.org/TR/2001/REC-SVG-20010904/DTD/svg10.dtd">
<svg version="1.0" xmlns="http://www.w3.org/2000/svg"
 width="1024.000000pt" height="1024.000000pt" viewBox="0 0 1024.000000 1024.000000"
 preserveAspectRatio="xMidYMid meet">

  <defs>
    <linearGradient id="customGradient" gradientUnits="userSpaceOnUse"
      x1="0" y1="0" x2="20024" y2="20024">
      <stop offset="0%" style="stop-color:#FF004C" /> 
      <stop offset="100%" style="stop-color:#D700FF" />
    </linearGradient>
  </defs>

<g transform="translate(0.000000,1024.000000) scale(0.100000,-0.100000)"
fill="url(#customGradient)" stroke="none" fill-opacity="0.8">
<path d="M4458 8282 l4 -408 -128 -33 c-276 -71 -534 -177 -729 -300 l-99 -62
-246 246 -246 245 -104 -107 c-58 -60 -256 -260 -440 -446 l-334 -337 227
-228 c125 -125 227 -232 227 -239 0 -6 -19 -44 -42 -85 -104 -184 -230 -517
-281 -743 l-24 -110 -393 -3 -392 -2 6 -23 c3 -12 6 -287 6 -612 l0 -590 387
0 388 0 17 -85 c53 -257 172 -571 300 -792 l33 -58 -85 -87 c-47 -49 -151
-155 -232 -238 l-147 -150 442 -452 442 -453 245 245 c135 135 248 245 252
245 3 0 50 -28 104 -62 122 -76 346 -184 482 -232 87 -30 199 -61 324 -90 l28
-6 2 -373 3 -372 578 -3 577 -2 0 362 c0 200 4 368 8 374 4 5 48 21 97 33 293
75 532 173 769 318 l89 54 247 -246 247 -246 58 63 c32 35 228 235 434 445
207 211 377 387 379 392 2 6 -98 114 -222 240 -124 127 -226 235 -226 240 0 6
33 77 74 158 118 234 202 463 245 667 12 55 24 103 27 108 3 4 179 8 392 8
l387 0 -3 610 -2 610 -389 0 -390 0 -11 58 c-52 261 -157 552 -284 787 l-55
100 231 232 231 231 -441 444 -441 444 -245 -245 -244 -244 -79 50 c-220 141
-449 238 -733 312 l-145 38 -3 407 -2 406 -578 0 -578 0 4 -408z m932 -958
c478 -73 908 -294 1268 -653 607 -604 807 -1456 545 -2320 -100 -330 -315
-674 -594 -948 -344 -338 -777 -546 -1279 -614 -120 -17 -488 -17 -595 0 -389
59 -651 156 -945 350 -387 255 -703 649 -875 1096 -163 421 -198 958 -91 1382
98 386 289 735 554 1014 406 427 867 655 1432 709 132 12 454 4 580 -16z"/>
<path d="M4714 6979 c-440 -51 -880 -297 -1167 -652 -234 -289 -378 -617 -423
-964 l-7 -53 452 0 451 0 0 430 0 430 440 0 440 0 0 410 0 410 -57 -1 c-32 -1
-90 -5 -129 -10z"/>
<path d="M5800 6410 l0 -240 240 0 240 0 0 240 0 240 -240 0 -240 0 0 -240z"/>
<path d="M4370 5555 l0 -245 260 0 260 0 0 245 0 245 -260 0 -260 0 0 -245z"/>
<path d="M5280 5555 l0 -245 260 0 260 0 0 245 0 245 -260 0 -260 0 0 -245z"/>
<path d="M6160 5555 l0 -245 250 0 250 0 0 245 0 245 -250 0 -250 0 0 -245z"/>
<path d="M3123 4849 c20 -273 138 -607 305 -864 257 -395 680 -700 1122 -811
70 -18 304 -54 348 -54 1 0 1 208 0 463 l-3 462 -437 3 -438 2 -2 443 -3 442
-449 3 -449 2 6 -91z"/>
<path d="M6160 4495 l0 -445 -452 -2 -453 -3 -3 -457 -2 -458 35 0 c52 0 268
47 370 81 173 58 390 173 537 286 386 296 645 703 737 1158 21 107 41 265 34
278 -2 4 -184 7 -404 7 l-399 0 0 -445z"/>
<path d="M4370 4655 l0 -255 260 0 260 0 0 255 0 255 -260 0 -260 0 0 -255z"/>
<path d="M5280 4655 l0 -255 260 0 260 0 0 255 0 255 -260 0 -260 0 0 -255z"/>
<path d="M3437 8533 c-4 -3 -7 -100 -7 -215 l0 -208 205 0 205 0 0 215 0 215
-198 0 c-109 0 -202 -3 -205 -7z"/>
<path d="M6240 8325 l0 -215 205 0 205 0 0 215 0 215 -205 0 -205 0 0 -215z"/>
<path d="M1430 6485 l0 -215 205 0 205 0 0 215 0 215 -205 0 -205 0 0 -215z"/>
<path d="M8250 6485 l0 -215 205 0 205 0 0 215 0 215 -205 0 -205 0 0 -215z"/>
<path d="M1430 3661 c0 -133 4 -212 10 -216 6 -4 98 -3 205 1 l195 7 0 208 0
209 -205 0 -205 0 0 -209z"/>
<path d="M8252 3658 l3 -213 140 -3 c77 -2 168 0 203 3 l62 7 0 209 0 209
-205 0 -205 0 2 -212z"/>
<path d="M3430 1785 l0 -215 205 0 205 0 0 215 0 215 -205 0 -205 0 0 -215z"/>
<path d="M6240 1785 l0 -215 205 0 205 0 0 215 0 215 -205 0 -205 0 0 -215z"/>
</g>
</svg>
