<?xml version="1.0" standalone="no"?>
<!DOCTYPE svg PUBLIC "-//W3C//DTD SVG 20010904//EN"
 "http://www.w3.org/TR/2001/REC-SVG-20010904/DTD/svg10.dtd">
<svg version="1.0" xmlns="http://www.w3.org/2000/svg"
 width="1024.000000pt" height="1024.000000pt" viewBox="0 0 1024.000000 1024.000000"
 preserveAspectRatio="xMidYMid meet">
  <defs>
    <linearGradient id="customGradient" gradientUnits="userSpaceOnUse"
      x1="0" y1="0" x2="25240" y2="25240">
      <stop offset="0%" style="stop-color:#30cfd0" /> 
      <stop offset="100%" style="stop-color:#330867" />
    </linearGradient>
  </defs>

<g transform="translate(0.000000,1024.000000) scale(0.100000,-0.100000)"
fill="url(#customGradient)" stroke="none" fill-opacity="0.8">
<path d="M4913 7986 c-200 -49 -412 -243 -583 -534 -51 -87 -59 -72 95 -182
87 -62 101 -69 110 -54 72 121 174 260 223 306 185 171 423 165 606 -16 104
-102 244 -329 316 -511 18 -44 33 -82 35 -83 3 -3 209 44 282 64 15 4 -3 54
-77 210 -167 354 -394 641 -587 742 -44 23 -106 48 -139 57 -69 18 -208 18
-281 1z"/>
<path d="M4166 7140 c-128 -267 -263 -761 -326 -1194 -47 -327 -62 -554 -57
-866 6 -335 26 -529 82 -810 32 -161 78 -346 88 -356 3 -4 257 74 264 80 2 2
-11 69 -28 150 -16 82 -28 150 -26 153 3 2 47 -24 98 -59 218 -144 516 -270
731 -309 77 -14 122 -7 273 43 236 78 441 174 595 278 58 39 76 47 78 34 4
-18 -22 -177 -41 -252 l-14 -52 66 -20 c203 -59 205 -60 213 -47 15 24 68 265
97 442 89 533 100 922 40 1391 -30 235 -86 523 -134 689 l-15 52 -133 -29
c-72 -15 -137 -30 -143 -32 -8 -3 -7 -27 2 -83 7 -43 13 -84 13 -90 1 -7 -35
14 -78 46 -44 32 -108 76 -142 97 l-63 38 50 22 c239 105 573 168 879 168 285
-1 407 -36 512 -147 69 -72 93 -140 93 -258 0 -105 -30 -211 -105 -364 -67
-139 -285 -455 -314 -455 -4 0 -70 65 -145 145 -76 80 -142 145 -148 145 -5 0
-7 -4 -4 -8 2 -4 9 -120 15 -257 11 -242 1 -687 -16 -730 -11 -31 12 -14 143
105 161 146 151 140 172 114 202 -250 345 -491 387 -654 24 -92 18 -229 -13
-291 -59 -120 -183 -200 -342 -220 -147 -19 -130 2 -130 -161 l0 -141 144 6
c175 8 265 26 372 78 140 66 248 185 293 322 99 297 -16 625 -416 1185 -67 94
-92 136 -85 145 179 226 289 390 376 560 177 347 209 583 106 795 -69 143
-188 248 -352 309 -148 56 -239 67 -533 67 -245 -1 -270 -2 -435 -32 -238 -42
-553 -120 -756 -188 -93 -31 -170 -58 -172 -59 -1 -1 47 -30 108 -64 112 -64
141 -86 98 -77 -12 3 -82 17 -154 30 -72 14 -137 28 -146 31 -15 6 -180 -23
-292 -51 -67 -17 -102 -12 -70 10 10 7 61 36 112 64 l94 50 -109 35 c-165 55
-357 107 -365 99 -7 -7 -72 -199 -82 -243 -5 -24 -1 -29 54 -53 33 -15 60 -30
60 -34 0 -4 -41 -34 -90 -66 -50 -32 -111 -77 -135 -98 l-45 -40 0 34 c0 53
46 260 91 407 31 106 120 344 155 417 4 8 -223 174 -239 174 -2 0 -30 -54 -61
-120z m1138 -954 c216 -60 419 -200 541 -371 268 -375 231 -899 -87 -1230
-180 -188 -401 -290 -660 -302 -338 -17 -657 143 -844 423 -285 428 -185 1023
222 1316 125 89 237 140 385 173 87 20 360 14 443 -9z"/>
<path d="M4923 5741 c-73 -75 -162 -166 -198 -202 l-66 -65 38 -247 37 -247
36 -10 c55 -14 143 13 181 56 9 11 28 58 43 105 22 74 32 92 70 127 71 66 142
76 278 41 44 -11 82 -19 84 -17 6 6 24 132 24 168 0 32 -15 50 -197 231 l-198
196 -132 -136z"/>
<path d="M5193 5165 c-35 -15 -50 -40 -78 -135 -9 -30 -31 -72 -48 -94 -33
-42 -126 -92 -189 -102 -21 -4 -38 -9 -37 -13 0 -3 47 -44 105 -90 73 -58 108
-80 117 -74 6 5 57 45 112 89 55 44 121 95 146 113 l47 33 16 103 c23 149 26
138 -51 163 -78 26 -96 26 -140 7z"/>
<path d="M3292 6910 c-222 -28 -393 -100 -501 -209 -284 -288 -211 -719 225
-1331 45 -63 96 -132 113 -154 17 -21 31 -43 31 -49 0 -5 -47 -76 -105 -158
-258 -362 -402 -652 -425 -858 -41 -361 175 -639 535 -691 91 -13 290 -13 435
0 243 22 659 114 950 209 194 64 406 152 389 161 -8 4 -39 13 -69 20 -76 18
-223 75 -296 115 l-62 33 -138 -57 c-207 -87 -283 -107 -614 -168 -69 -12
-151 -17 -300 -17 -192 -1 -209 0 -263 22 -81 33 -166 114 -203 194 -26 56
-29 73 -28 158 1 107 22 175 100 332 67 134 256 414 308 457 13 11 33 -3 133
-97 65 -61 129 -119 143 -130 l25 -20 0 417 c0 229 4 461 8 516 l8 100 -155
-155 c-86 -85 -157 -152 -159 -150 -155 176 -312 436 -377 625 -81 235 -15
446 171 540 109 56 234 66 653 52 l49 -2 34 125 c18 69 33 130 33 136 0 27
-496 53 -648 34z"/>
<path d="M5500 3954 c-36 -19 -129 -54 -207 -80 -79 -26 -143 -49 -143 -51 0
-2 37 -22 83 -43 197 -90 511 -187 747 -230 120 -22 127 -24 164 -62 67 -67
123 -86 202 -68 71 16 119 53 150 116 95 193 -106 385 -302 289 l-57 -28 -79
17 c-103 22 -265 76 -381 127 -50 22 -96 42 -102 43 -5 2 -39 -12 -75 -30z"/>
<path d="M4258 3476 c-64 -17 -119 -34 -123 -37 -14 -14 137 -317 238 -479
207 -330 397 -473 651 -487 264 -15 471 121 692 453 112 170 269 483 250 501
-6 6 -268 75 -271 71 -1 -2 -14 -32 -30 -68 -40 -92 -119 -234 -173 -309 -61
-86 -178 -200 -239 -233 -122 -67 -253 -73 -371 -18 -81 38 -215 169 -291 285
-53 81 -148 263 -169 323 -13 39 -12 39 -164 -2z"/>
</g>
</svg>
